<?xml version="1.0" encoding="UTF-8"?><svg id="Layer_1" xmlns="http://www.w3.org/2000/svg" viewBox="0 0 125.764 125.549"><path d="M82.844,107.964h0s-.039.295-.039.295c-2.518,18.994-29.278,20.857-34.404,2.395h0s-.076.07-.076.07c-14.047,12.967-35.751-2.724-27.842-20.128h0s0,0,0,0c-19.1.985-25.77-24.958-8.564-33.308l.235-.114h0c-15.293-11.62-3.665-35.853,14.968-31.195l.189.047-.042-.19C23.123,7.083,47.666-3.876,58.863,11.729h0s.121-.232.121-.232c8.818-16.971,34.568-9.593,33.061,9.473h0s0,0,0,0c17.614-7.43,32.705,14.696,19.358,28.383l-.072.074h0c18.314,5.63,15.719,32.329-3.337,34.326l-.296.031h0c10.366,16.211-8.932,34.987-24.853,24.181Z" fill="#34b14a" stroke="#231f20" stroke-miterlimit="10" stroke-width="4"/></svg>